<svg id="Capa_1" enable-background="new 0 0 505.902 505.902" height="512" viewBox="0 0 505.902 505.902" width="512" xmlns="http://www.w3.org/2000/svg"><g><g id="Page-1_74_"><g id="_x30_75---Love-Comment"><path id="Path_353_" clip-rule="evenodd" d="m343.721 432.978c-8.02-.024-15.608 3.636-20.581 9.929-1.834 2.337-4.602 3.751-7.57 3.867-2.959-.013-5.729-1.458-7.433-3.877-4.985-6.281-12.571-9.936-20.59-9.92-5.401.299-10.454 2.76-14.018 6.829-3.564 4.068-5.34 9.401-4.926 14.794 0 17.371 17.079 35.913 47.031 51.301 29.952-15.387 47.031-33.947 47.031-51.301.414-5.393-1.362-10.726-4.926-14.794-3.564-4.067-8.617-6.529-14.018-6.828z" fill-rule="evenodd"/><path id="Shape_118_" d="m362.665 265.143c-40.738-.031-78.649 20.819-100.439 55.24-21.79 34.42-24.418 77.607-6.963 114.415 6.121-12.243 18.596-20.015 32.283-20.114 10.238-.028 20.167 3.504 28.087 9.993 7.92-6.487 17.849-10.02 28.087-9.993 10.264.258 19.993 4.633 26.996 12.142s10.691 17.519 10.233 27.776c0 10.752-4.242 28.8-26.569 47.735 2.743.192 5.486.521 8.283.521 65.643 0 118.857-53.214 118.857-118.857s-53.212-118.858-118.855-118.858zm20.965 30.107c3.499-3.5 9.147-3.581 12.745-.183.539.457 10.057 8.165 41.646 16.064 4.476 1.122 7.415 5.403 6.852 9.983s-4.45 8.023-9.065 8.028c-.749-.002-1.495-.094-2.222-.274-37.157-9.289-48.137-18.862-49.966-20.69-3.566-3.573-3.562-9.36.01-12.928zm-96.329 15.881c32.393-8.091 41.591-16 41.673-16.082 3.712-3.281 9.347-3.068 12.8.485 3.416 3.537 3.376 9.157-.091 12.645-1.829 1.829-12.8 11.401-49.957 20.69-.721.178-1.461.27-2.203.274-4.615-.005-8.502-3.448-9.065-8.028s2.376-8.861 6.852-9.983h-.009zm2.221 45.44c-5.049 0-9.143-4.093-9.143-9.143s4.093-9.143 9.143-9.143h36.571c5.049 0 9.143 4.093 9.143 9.143s-4.093 9.143-9.143 9.143zm73.143 45.715c-28.928 0-36.571-17.938-36.571-27.429 0-5.049 4.093-9.143 9.143-9.143 5.049 0 9.143 4.093 9.143 9.143.101 1.307 1.463 9.143 18.286 9.143s18.185-7.826 18.286-9.399c.348-4.938 4.476-8.754 9.426-8.713 4.902.08 8.84 4.066 8.859 8.969 0 9.49-7.644 27.429-36.572 27.429zm73.143-45.715h-36.571c-5.049 0-9.143-4.093-9.143-9.143s4.093-9.143 9.143-9.143h36.571c5.049 0 9.143 4.093 9.143 9.143s-4.094 9.143-9.143 9.143z"/><path id="Shape_117_" d="m353.522 247.323v-219.894c0-15.149-12.28-27.429-27.428-27.429h-274.286c-15.148 0-27.429 12.28-27.429 27.429v219.429c0 15.148 12.28 27.429 27.429 27.429h18.286c5.049 0 9.143 4.093 9.143 9.143v36.955c.001 3.434 1.926 6.578 4.984 8.14s6.734 1.278 9.516-.734l71.57-51.776c1.56-1.125 3.435-1.73 5.358-1.728h110.062c21.133-15.865 46.427-25.233 72.795-26.964zm-283.428-210.752h237.714c5.049 0 9.143 4.093 9.143 9.143s-4.093 9.143-9.143 9.143h-237.714c-5.049 0-9.143-4.093-9.143-9.143s4.093-9.143 9.143-9.143zm0 45.715h237.714c5.049 0 9.143 4.093 9.143 9.143s-4.093 9.143-9.143 9.143h-237.714c-5.049 0-9.143-4.093-9.143-9.143s4.093-9.143 9.143-9.143zm0 45.714h237.714c5.049 0 9.143 4.093 9.143 9.143s-4.093 9.143-9.143 9.143h-237.714c-5.049 0-9.143-4.093-9.143-9.143s4.093-9.143 9.143-9.143zm0 45.714h237.714c5.049 0 9.143 4.093 9.143 9.143s-4.094 9.143-9.143 9.143h-237.714c-5.049 0-9.143-4.093-9.143-9.143s4.093-9.143 9.143-9.143zm0 64c-5.049 0-9.143-4.093-9.143-9.143s4.093-9.143 9.143-9.143h237.714c5.049 0 9.143 4.093 9.143 9.143s-4.093 9.143-9.143 9.143z"/></g></g></g></svg>